<?xml version="1.0" standalone="no"?>
<!DOCTYPE svg PUBLIC "-//W3C//DTD SVG 20010904//EN"
 "http://www.w3.org/TR/2001/REC-SVG-20010904/DTD/svg10.dtd">
<svg version="1.0" xmlns="http://www.w3.org/2000/svg"
 width="514.000000pt" height="308.000000pt" viewBox="0 0 514.000000 308.000000"
 preserveAspectRatio="xMidYMid meet">

<g transform="translate(0.000000,308.000000) scale(0.100000,-0.100000)"
fill="#000000" stroke="none">
<path d="M864 2778 c-9 -29 -22 -82 -29 -118 -7 -36 -17 -86 -24 -112 -6 -27
-16 -69 -22 -95 -7 -27 -17 -77 -24 -113 -7 -36 -17 -85 -23 -110 -19 -77 -49
-213 -73 -330 -6 -30 -17 -75 -24 -100 -7 -25 -16 -65 -20 -90 -4 -25 -13 -67
-20 -95 -13 -50 -25 -101 -49 -226 -7 -36 -16 -71 -20 -77 -3 -5 -10 -36 -15
-69 -5 -32 -15 -85 -24 -118 -8 -33 -22 -96 -32 -140 -9 -44 -21 -98 -27 -120
-5 -22 -14 -65 -20 -95 -5 -30 -16 -77 -23 -105 -8 -27 -19 -75 -25 -105 -18
-91 -38 -182 -51 -231 -22 -87 -92 -79 743 -77 l743 3 9 40 c4 22 14 58 22 80
8 23 14 55 14 72 0 17 7 49 15 72 24 68 29 135 13 149 -11 9 -140 12 -494 14
l-479 3 2 60 c1 33 9 83 17 110 8 28 20 75 26 105 6 30 17 84 25 120 8 36 19
90 25 120 6 30 17 75 25 100 8 25 17 70 21 100 4 30 13 69 21 87 7 18 13 48
13 67 0 19 5 47 11 63 11 26 20 64 49 213 6 30 17 75 25 100 7 25 16 69 20 99
4 30 14 69 21 87 8 18 14 49 14 68 0 19 5 47 11 63 7 15 17 57 24 93 7 36 17
86 24 113 6 26 16 68 22 95 6 26 17 79 24 117 8 39 18 83 24 99 7 16 9 37 6
47 -6 18 -21 19 -240 19 l-234 0 -17 -52z"/>
<path d="M1489 2820 c-10 -6 -20 -30 -24 -57 -3 -27 -13 -68 -20 -93 -8 -25
-19 -70 -25 -100 -6 -30 -14 -71 -18 -90 -17 -76 -89 -69 761 -74 419 -2 794
-8 832 -13 122 -17 189 -69 229 -176 14 -38 17 -67 13 -140 -6 -103 -29 -244
-46 -275 -6 -11 -11 -37 -11 -56 0 -19 -6 -55 -14 -78 -8 -24 -18 -65 -21 -93
-4 -27 -14 -65 -21 -84 -8 -18 -14 -48 -14 -66 0 -18 -7 -51 -15 -74 -8 -23
-17 -65 -21 -94 -4 -29 -13 -64 -20 -79 -8 -15 -14 -38 -14 -51 0 -35 -53
-157 -102 -232 -34 -53 -115 -128 -168 -155 -100 -51 -165 -60 -456 -60 -308
0 -294 4 -314 -85 -6 -28 -16 -70 -22 -95 -6 -25 -16 -77 -24 -117 -7 -40 -18
-81 -24 -93 -6 -11 -8 -25 -5 -30 4 -6 132 -10 338 -10 315 0 339 1 447 24
126 27 196 48 250 73 316 146 510 445 605 931 8 40 17 78 22 85 4 6 10 35 14
62 6 46 17 96 54 245 22 90 36 151 50 230 8 41 19 93 25 115 5 22 10 110 10
196 0 166 -14 235 -70 347 -69 138 -231 231 -455 261 -103 14 -1703 15 -1726
1z"/>
<path d="M3601 2813 c7 -10 43 -49 80 -88 57 -61 129 -175 129 -207 0 -5 10
-32 21 -59 l22 -49 395 2 395 3 18 65 c54 196 75 316 58 336 -9 12 -112 14
-571 14 -532 0 -560 -1 -547 -17z"/>
<path d="M2582 2283 c-13 -3 -25 -12 -28 -21 -3 -9 -11 -30 -18 -47 -40 -93
-96 -270 -96 -303 0 -13 -5 -32 -11 -44 -6 -11 -15 -50 -20 -86 -5 -36 -13
-70 -18 -76 -5 -6 -11 -36 -15 -66 -4 -30 -13 -75 -21 -100 -8 -25 -19 -70
-25 -100 -18 -89 -38 -182 -48 -225 -31 -125 -56 -342 -45 -383 5 -22 9 -22
210 -22 190 0 209 2 253 22 l48 22 -1 116 c0 118 13 236 32 280 6 14 15 50 20
80 6 30 15 76 20 103 6 26 16 68 22 95 19 88 38 177 49 232 6 30 18 76 26 101
8 26 14 54 14 63 0 45 65 197 115 270 26 39 26 39 7 59 -11 10 -39 23 -63 28
-45 8 -365 10 -407 2z"/>
<path d="M3424 598 c-73 -104 -183 -213 -285 -280 -53 -35 -75 -55 -66 -60 18
-11 1289 -10 1307 2 8 5 20 38 27 72 6 35 17 84 22 111 13 58 29 130 40 179 5
23 4 41 -2 47 -8 8 -170 11 -498 11 l-487 0 -58 -82z"/>
</g>
</svg>
