<?xml version="1.0" standalone="no"?>
<!DOCTYPE svg PUBLIC "-//W3C//DTD SVG 20010904//EN"
 "http://www.w3.org/TR/2001/REC-SVG-20010904/DTD/svg10.dtd">
<svg version="1.0" xmlns="http://www.w3.org/2000/svg"
 width="800.000000pt" height="774.000000pt" viewBox="0 0 800.000000 774.000000"
 preserveAspectRatio="xMidYMid meet">

<g transform="translate(0.000000,774.000000) scale(0.100000,-0.100000)"
fill="#000000" stroke="none">
<path d="M3735 7621 c-71 -3 -135 -9 -141 -13 -6 -4 -60 -12 -120 -18 -60 -6
-131 -17 -158 -25 -27 -8 -63 -15 -80 -15 -17 0 -51 -6 -76 -14 -25 -8 -83
-24 -130 -36 -47 -12 -101 -28 -120 -35 -19 -8 -50 -17 -68 -20 -18 -4 -45
-13 -60 -21 -15 -8 -33 -14 -40 -14 -7 0 -32 -8 -55 -18 -23 -10 -62 -26 -87
-36 -25 -10 -58 -24 -75 -31 -54 -23 -359 -176 -387 -193 -14 -9 -56 -35 -93
-57 -222 -132 -495 -347 -694 -546 -78 -78 -122 -126 -223 -244 -51 -59 -171
-215 -204 -265 -16 -24 -41 -61 -56 -84 -14 -23 -30 -45 -35 -51 -9 -10 -70
-114 -118 -200 -42 -75 -129 -251 -160 -325 -15 -36 -36 -83 -46 -106 -10 -23
-19 -48 -19 -56 0 -8 -4 -18 -9 -24 -6 -5 -14 -27 -20 -49 -5 -22 -23 -78 -39
-125 -39 -113 -64 -208 -93 -350 -6 -30 -17 -84 -25 -120 -7 -36 -18 -113 -24
-171 -6 -58 -15 -121 -20 -140 -13 -44 -13 -673 0 -719 5 -19 16 -93 24 -165
15 -128 27 -200 47 -280 6 -22 14 -60 19 -85 5 -25 17 -70 26 -100 8 -30 25
-86 36 -125 11 -38 27 -82 34 -97 8 -14 14 -34 14 -45 0 -10 7 -31 15 -47 8
-15 15 -33 15 -38 0 -29 163 -376 241 -514 58 -101 94 -160 106 -172 7 -7 13
-17 13 -22 0 -9 104 -158 157 -225 13 -16 27 -35 31 -40 6 -9 30 -38 157 -190
53 -63 258 -268 326 -325 108 -91 124 -105 129 -111 12 -14 264 -194 360 -256
107 -69 459 -253 485 -253 7 0 18 -7 25 -15 7 -8 21 -15 31 -15 11 0 36 -9 56
-20 21 -11 45 -20 53 -20 8 0 24 -7 34 -15 11 -8 28 -15 39 -15 10 0 33 -6 50
-14 47 -20 126 -46 175 -56 24 -6 48 -13 54 -16 11 -7 94 -28 183 -46 28 -5
75 -16 105 -23 30 -7 84 -16 120 -20 36 -4 101 -14 145 -23 104 -21 827 -24
886 -4 20 7 85 19 145 27 166 21 319 54 489 105 171 51 228 71 282 95 17 8 36
15 41 15 6 0 23 6 39 14 15 8 51 24 78 36 156 68 192 85 295 143 47 26 92 51
100 56 8 6 53 33 100 61 47 28 117 73 155 101 39 28 81 58 95 67 14 9 27 19
30 22 3 3 50 42 105 87 55 44 125 104 155 132 30 29 73 69 95 90 67 63 204
211 269 291 33 41 69 84 78 94 10 11 30 38 45 60 15 23 42 59 60 82 18 23 33
44 33 47 0 3 25 43 55 87 30 44 55 83 55 85 0 2 22 42 49 87 51 88 191 367
191 382 0 5 9 27 19 50 11 23 29 68 41 101 12 33 26 68 31 77 5 10 13 34 18
55 6 21 17 61 26 88 48 147 115 430 115 487 1 18 7 62 15 98 25 113 39 500 27
757 -12 232 -23 320 -77 583 -20 96 -64 260 -86 325 -6 17 -15 46 -20 66 -4
19 -15 49 -24 65 -8 16 -15 34 -15 41 0 12 -14 47 -51 129 -11 23 -19 48 -19
56 0 9 -7 21 -15 28 -8 7 -15 19 -15 26 0 15 -127 266 -178 352 -18 29 -32 55
-32 57 0 2 -25 41 -55 85 -30 44 -55 83 -55 86 0 3 -25 38 -55 77 -30 40 -58
77 -63 82 -165 219 -449 508 -660 673 -225 176 -430 304 -682 428 -167 81
-181 88 -255 115 -33 12 -73 27 -90 34 -40 17 -91 35 -140 49 -22 7 -53 18
-68 24 -16 7 -37 12 -49 12 -11 0 -34 7 -51 14 -18 8 -54 19 -82 25 -57 11
-121 25 -215 46 -36 8 -108 20 -160 25 -52 6 -113 14 -135 20 -51 12 -530 20
-700 11z m516 -171 c101 -6 217 -17 258 -25 40 -8 90 -15 111 -15 21 0 51 -5
67 -11 15 -6 60 -17 98 -24 142 -28 436 -114 540 -159 17 -7 46 -20 65 -28
105 -44 294 -136 375 -183 33 -19 74 -41 90 -50 43 -22 124 -73 135 -85 3 -3
30 -22 60 -42 92 -61 174 -120 192 -137 18 -17 23 -21 73 -59 128 -98 396
-371 523 -533 103 -130 286 -400 312 -461 6 -13 19 -36 30 -53 11 -16 24 -41
30 -55 5 -14 15 -32 20 -40 6 -8 13 -22 16 -30 3 -8 8 -19 10 -25 2 -5 8 -17
13 -25 5 -8 19 -37 31 -65 12 -27 27 -63 35 -80 8 -16 23 -55 35 -85 12 -30
27 -69 35 -85 7 -17 16 -46 20 -65 4 -19 11 -39 15 -45 4 -5 15 -37 24 -70 10
-33 24 -85 32 -115 9 -30 20 -77 26 -105 5 -27 16 -72 23 -100 21 -76 47 -247
56 -365 5 -58 13 -165 19 -238 7 -92 7 -172 0 -265 -6 -72 -14 -181 -19 -242
-8 -117 -33 -277 -56 -360 -7 -27 -18 -72 -23 -100 -6 -27 -17 -75 -26 -105
-8 -30 -22 -82 -32 -115 -9 -33 -20 -64 -24 -70 -4 -5 -11 -26 -15 -45 -4 -19
-14 -48 -21 -65 -7 -16 -25 -61 -39 -99 -15 -38 -30 -77 -35 -85 -19 -41 -40
-88 -50 -111 -5 -14 -14 -32 -19 -40 -5 -8 -12 -22 -15 -30 -3 -8 -10 -22 -16
-30 -5 -8 -15 -26 -20 -40 -6 -14 -19 -38 -30 -55 -11 -16 -24 -41 -30 -54 -6
-13 -24 -44 -40 -68 -17 -24 -30 -47 -30 -52 0 -4 -17 -31 -37 -59 -21 -28
-54 -74 -73 -102 -60 -87 -182 -243 -250 -320 -120 -134 -372 -377 -419 -404
-9 -5 -23 -16 -31 -24 -24 -24 -232 -176 -284 -208 -26 -16 -58 -36 -71 -44
-50 -33 -179 -105 -285 -161 -37 -19 -171 -80 -230 -104 -36 -14 -79 -33 -97
-41 -17 -8 -37 -14 -45 -14 -8 0 -23 -7 -34 -15 -10 -8 -29 -15 -41 -15 -12 0
-37 -6 -55 -14 -49 -22 -217 -68 -328 -91 -289 -59 -387 -71 -675 -80 -263 -8
-556 13 -770 56 -27 5 -81 16 -120 23 -38 7 -83 18 -98 25 -16 6 -38 11 -50
11 -12 0 -35 7 -51 15 -15 8 -36 15 -45 15 -9 1 -34 8 -56 16 -22 9 -53 19
-70 24 -44 13 -116 39 -152 55 -17 8 -35 15 -39 15 -4 0 -28 9 -53 21 -25 11
-59 27 -76 34 -93 41 -250 123 -342 178 -57 34 -113 67 -124 73 -10 6 -27 18
-37 27 -10 10 -22 17 -25 17 -27 0 -272 195 -451 357 -151 137 -403 423 -481
544 -5 9 -37 56 -70 105 -33 49 -68 105 -78 124 -11 19 -26 46 -35 60 -34 53
-136 253 -181 355 -12 28 -29 62 -37 77 -8 14 -14 32 -14 40 0 7 -6 25 -14 39
-7 14 -16 39 -20 55 -4 16 -13 43 -20 59 -13 30 -26 69 -64 200 -32 109 -42
154 -57 238 -8 42 -17 82 -21 88 -3 6 -10 48 -14 93 -5 44 -14 104 -21 131
-17 70 -17 780 0 850 7 28 16 87 21 131 4 45 11 87 14 93 4 6 13 46 21 88 7
43 19 98 25 123 30 113 53 188 66 218 8 18 14 43 14 55 0 12 6 31 14 42 7 11
17 36 21 55 4 19 11 41 16 50 5 8 20 44 34 80 14 36 32 79 40 95 42 92 100
209 135 270 22 39 47 84 56 100 15 28 179 277 196 300 5 6 17 21 28 34 11 13
20 27 20 30 0 4 15 22 33 41 18 19 50 58 72 85 106 133 480 491 563 539 8 5
27 19 41 32 25 22 249 174 256 174 2 0 23 13 47 29 24 16 82 49 129 74 47 25
95 50 105 55 57 32 221 102 329 142 33 13 74 28 90 35 30 13 73 26 200 63 151
44 183 52 231 58 27 4 58 11 68 17 11 5 56 13 100 17 45 5 101 13 126 19 44
11 278 27 436 30 44 0 163 -4 265 -9z"/>
<path d="M2363 5708 c-12 -17 -40 -113 -48 -168 -4 -25 -13 -65 -20 -90 -8
-25 -19 -70 -25 -100 -6 -30 -17 -84 -24 -120 -8 -36 -20 -92 -26 -125 -7 -33
-19 -81 -26 -107 -8 -27 -17 -69 -21 -95 -3 -27 -10 -56 -14 -65 -5 -9 -13
-43 -18 -75 -5 -32 -15 -85 -24 -118 -8 -33 -22 -96 -32 -140 -9 -44 -22 -98
-27 -120 -5 -22 -16 -70 -22 -106 -7 -36 -16 -71 -20 -77 -3 -5 -10 -36 -15
-69 -5 -32 -15 -85 -24 -118 -8 -33 -22 -96 -32 -140 -9 -44 -21 -98 -27 -120
-5 -22 -14 -65 -20 -95 -5 -30 -16 -77 -23 -105 -8 -27 -19 -75 -25 -105 -18
-91 -38 -182 -51 -231 -22 -87 -92 -79 743 -77 l743 3 9 40 c4 22 14 58 22 80
8 23 14 55 14 72 0 17 6 49 14 71 14 39 32 150 25 154 -2 2 -224 5 -494 8
l-490 5 2 60 c1 33 9 83 17 110 8 28 20 75 26 105 6 30 17 84 25 120 8 36 19
90 25 120 6 30 17 75 25 100 7 25 16 65 19 90 4 25 13 68 21 95 7 28 19 75 25
105 6 30 17 84 25 120 8 36 19 90 25 120 6 30 17 75 25 100 7 25 16 65 19 90
4 25 13 68 21 95 7 28 19 75 25 105 33 167 41 201 71 325 6 28 18 79 25 115 7
36 17 80 23 99 7 23 7 40 0 52 -9 18 -25 19 -233 19 -167 0 -226 -3 -233 -12z"/>
<path d="M2980 5711 c-21 -6 -27 -16 -36 -66 -12 -60 -24 -115 -46 -202 -7
-27 -12 -70 -12 -98 l-1 -50 805 -5 c443 -3 814 -9 825 -14 123 -51 163 -88
189 -173 26 -84 15 -237 -28 -403 -14 -55 -25 -104 -51 -237 -7 -40 -19 -81
-24 -92 -6 -11 -11 -35 -11 -55 0 -19 -5 -47 -11 -63 -6 -15 -17 -59 -24 -98
-53 -271 -156 -449 -304 -525 -99 -50 -174 -60 -460 -60 -146 0 -271 -4 -277
-8 -18 -11 -44 -81 -44 -117 0 -18 -6 -50 -14 -71 -7 -22 -17 -64 -21 -94 -4
-30 -13 -69 -20 -86 -7 -17 -9 -37 -5 -44 6 -9 87 -11 351 -8 411 5 453 11
663 92 314 122 524 438 621 933 7 40 19 81 24 92 6 11 11 31 11 45 0 25 27
150 55 251 14 53 27 115 50 235 8 41 19 93 25 115 15 63 13 347 -4 392 -8 21
-17 50 -20 65 -3 14 -24 58 -47 97 -74 129 -223 216 -414 244 -80 11 -1706 19
-1745 8z"/>
<path d="M5073 5709 c9 -5 17 -14 17 -19 0 -4 28 -35 63 -68 59 -58 137 -181
137 -217 0 -9 11 -38 25 -65 l25 -50 389 0 389 0 20 63 c11 34 24 85 27 112 4
28 11 58 16 67 5 9 14 49 19 90 9 65 9 74 -7 85 -13 10 -142 13 -577 13 -386
-1 -556 -4 -543 -11z"/>
<path d="M4034 5143 c-4 -15 -11 -34 -17 -41 -19 -24 -69 -176 -91 -277 -13
-56 -19 -82 -47 -195 -6 -25 -17 -74 -24 -110 -17 -79 -33 -152 -47 -205 -5
-22 -16 -69 -23 -105 -8 -36 -18 -83 -23 -105 -31 -126 -56 -342 -45 -384 l6
-22 216 3 c190 4 220 6 252 24 l37 19 -1 115 c0 118 13 236 32 280 6 14 15 50
20 80 10 57 24 124 43 200 10 44 26 117 48 230 6 30 17 75 25 100 7 25 17 63
21 84 4 22 13 51 20 65 8 14 14 32 14 39 0 16 66 141 88 165 14 16 14 19 -6
40 -22 21 -30 22 -257 25 l-234 3 -7 -28z"/>
<path d="M4938 3538 c-13 -18 -37 -53 -53 -77 -64 -95 -255 -264 -324 -286
-27 -8 -27 -23 2 -30 33 -8 1294 -1 1303 7 4 4 13 36 20 70 12 60 20 94 45
206 5 26 14 64 18 84 5 23 4 41 -2 47 -8 8 -170 11 -498 11 l-487 0 -24 -32z"/>
<path d="M3041 2543 c-28 -6 -90 -43 -109 -66 -18 -21 -41 -121 -42 -177 0
-56 22 -130 51 -169 30 -41 121 -67 181 -51 48 14 111 71 106 97 -5 26 -55 29
-82 5 -56 -51 -87 -53 -132 -8 -34 34 -34 34 -34 130 0 92 1 96 31 131 41 46
83 48 124 5 37 -39 79 -38 82 0 4 32 -22 62 -75 89 -41 21 -54 23 -101 14z"/>
<path d="M3440 2544 c-104 -36 -137 -74 -151 -172 -7 -45 -6 -90 1 -137 14
-87 48 -128 127 -151 48 -14 58 -14 106 0 80 23 116 66 128 153 13 91 -1 191
-33 233 -36 50 -133 90 -178 74z m73 -85 c46 -21 64 -82 59 -201 -2 -39 -8
-53 -37 -83 -39 -38 -61 -43 -104 -21 -49 26 -65 62 -65 148 0 133 60 197 147
157z"/>
<path d="M4881 2537 c-8 -11 -11 -78 -9 -243 l3 -229 45 0 45 0 0 240 0 240
-36 3 c-22 2 -40 -2 -48 -11z"/>
<path d="M5670 2544 c-105 -35 -129 -67 -167 -230 -7 -30 37 -165 62 -191 12
-12 43 -29 69 -38 43 -15 51 -15 103 0 30 9 67 13 82 10 43 -9 52 11 49 112
l-3 88 -75 0 c-74 0 -75 0 -78 -27 -3 -23 0 -28 20 -28 62 -1 63 -54 2 -84
-67 -32 -118 9 -134 107 -11 72 3 144 37 179 36 38 74 37 125 -3 34 -27 42
-30 64 -21 32 15 31 42 -3 74 -49 44 -111 65 -153 52z"/>
<path d="M2111 2512 c-13 -25 -15 -390 -2 -410 6 -11 36 -13 127 -10 106 3
123 6 148 25 55 44 71 88 71 195 0 91 -2 99 -30 140 -44 61 -72 72 -197 76
-98 3 -107 2 -117 -16z m195 -59 c99 -48 98 -247 -1 -289 -41 -17 -79 -18
-106 -4 -17 10 -19 22 -19 141 0 72 5 139 10 150 14 24 66 25 116 2z"/>
<path d="M2534 2517 c-2 -7 -3 -105 -2 -217 l3 -205 144 -3 c80 -1 149 2 154
7 5 5 6 18 2 30 -6 19 -14 21 -105 21 -108 0 -120 6 -120 65 0 52 15 65 79 65
61 0 89 16 77 45 -4 11 -20 15 -56 15 -28 0 -60 4 -70 10 -24 13 -34 57 -19
92 l11 28 98 0 c101 0 118 7 104 45 -5 12 -31 15 -150 15 -108 0 -146 -3 -150
-13z"/>
<path d="M3750 2511 c-6 -12 -10 -98 -10 -209 0 -204 3 -217 52 -210 21 3 23
8 26 78 2 41 8 80 14 87 28 34 70 2 107 -82 36 -80 36 -80 80 -83 51 -4 51 2
6 93 -19 39 -35 76 -35 83 0 7 16 28 35 48 31 31 35 40 35 87 -1 59 -25 98
-73 116 -16 6 -73 11 -127 11 -88 0 -100 -2 -110 -19z m200 -61 c23 -23 26
-68 7 -94 -10 -14 -25 -17 -72 -14 l-60 3 -3 39 c-2 22 -1 50 2 63 6 20 12 23
56 23 37 0 55 -5 70 -20z"/>
<path d="M4226 2443 c-15 -49 -31 -101 -37 -118 -6 -16 -14 -46 -19 -65 -4
-19 -15 -59 -25 -87 -21 -64 -15 -83 24 -83 25 0 31 6 41 35 15 45 38 57 102
53 49 -3 53 -5 72 -43 16 -30 28 -41 50 -43 43 -5 51 10 32 58 -9 22 -16 50
-16 63 0 12 -6 34 -14 49 -8 14 -17 46 -21 70 -4 24 -11 48 -16 54 -5 6 -14
35 -19 65 -12 63 -29 79 -86 79 l-42 0 -26 -87z m93 -65 c19 -31 31 -88 24
-115 -4 -18 -12 -23 -39 -23 -27 0 -37 5 -43 23 -5 12 -5 27 -1 32 5 6 11 31
15 58 8 51 22 60 44 25z"/>
<path d="M4486 2514 c-10 -26 12 -43 57 -46 l42 -3 5 -185 5 -185 28 -3 c53
-6 57 5 57 180 0 91 4 168 10 179 8 14 21 19 54 19 45 0 61 15 50 45 -5 12
-32 15 -154 15 -127 0 -149 -2 -154 -16z"/>
<path d="M5085 2508 c-3 -13 -4 -111 -3 -218 l3 -195 23 -3 c46 -7 52 10 52
150 l0 129 24 -18 c13 -10 31 -31 40 -48 8 -16 31 -57 51 -90 19 -33 41 -73
47 -88 13 -29 40 -41 79 -35 l24 3 3 195 c3 225 1 240 -32 240 -32 0 -36 -14
-36 -145 0 -110 -10 -147 -31 -114 -4 8 -13 21 -19 29 -6 8 -39 62 -73 120
-62 105 -62 105 -104 108 -37 3 -43 0 -48 -20z"/>
<path d="M1905 1888 c-70 -25 -105 -88 -112 -204 -5 -68 -2 -87 17 -130 27
-59 52 -84 107 -108 79 -35 183 7 215 86 5 12 1 21 -12 28 -27 15 -33 13 -75
-20 -44 -35 -89 -39 -123 -10 -29 24 -42 68 -42 139 0 82 17 128 58 153 33 21
35 21 66 3 17 -10 35 -24 39 -32 11 -18 76 -17 83 2 8 21 -42 82 -78 94 -38
14 -103 13 -143 -1z"/>
<path d="M2295 1889 c-46 -17 -71 -45 -94 -106 -27 -71 -27 -152 0 -223 26
-68 41 -86 97 -110 55 -25 104 -25 145 -3 91 50 117 100 117 220 0 154 -51
222 -172 229 -35 2 -76 -1 -93 -7z m126 -71 c75 -26 79 -242 7 -292 -31 -22
-84 -20 -117 3 -22 16 -30 33 -40 88 -7 38 -10 75 -7 83 3 8 10 34 16 57 9 34
18 47 48 63 20 10 44 17 52 14 8 -4 27 -10 41 -16z"/>
<path d="M4343 1890 c-32 -13 -59 -43 -83 -91 -19 -36 -21 -55 -18 -144 3 -98
5 -105 34 -142 37 -45 98 -83 137 -83 50 0 130 44 151 84 21 40 21 42 -14 51
-20 5 -35 -1 -64 -24 -51 -40 -72 -46 -102 -26 -45 29 -64 73 -64 147 0 84 20
137 61 161 41 23 49 22 87 -13 50 -45 112 -38 93 11 -19 50 -55 71 -128 75
-37 2 -78 0 -90 -6z"/>
<path d="M5095 1888 c-75 -26 -115 -101 -115 -218 0 -85 22 -150 62 -186 32
-29 91 -54 126 -54 36 0 112 33 134 57 81 93 79 293 -5 371 -42 40 -135 53
-202 30z m120 -67 c34 -20 65 -93 65 -152 0 -50 -25 -117 -52 -139 -55 -46
-138 -11 -157 64 -24 98 -5 186 49 224 39 26 55 27 95 3z"/>
<path d="M5920 1889 c-45 -18 -70 -57 -70 -109 0 -56 22 -83 95 -119 105 -50
120 -59 132 -82 11 -21 9 -27 -14 -51 -36 -37 -74 -36 -124 3 -45 36 -82 36
-87 1 -5 -31 13 -50 75 -78 61 -28 88 -30 145 -7 63 24 87 57 88 119 0 45 -4
55 -34 86 -18 19 -49 40 -67 47 -119 46 -155 83 -115 120 31 29 65 26 106 -7
43 -36 80 -33 80 8 0 15 -8 34 -17 42 -41 35 -138 48 -193 27z"/>
<path d="M2636 1874 c-3 -9 -6 -100 -6 -204 0 -104 3 -195 6 -204 7 -19 55
-21 72 -4 8 8 12 52 12 131 0 115 1 118 21 115 20 -3 43 -38 109 -165 35 -69
58 -93 90 -93 19 0 33 7 40 19 15 29 13 394 -2 409 -7 7 -22 12 -35 12 -29 0
-32 -16 -36 -154 -2 -113 -14 -143 -36 -89 -6 15 -15 35 -20 43 -6 8 -28 47
-51 86 -56 98 -73 114 -119 114 -26 0 -41 -5 -45 -16z"/>
<path d="M3057 1878 c-10 -32 5 -48 45 -48 78 0 78 0 78 -183 0 -178 6 -202
51 -195 l24 3 3 174 c1 103 7 180 13 187 6 7 29 14 51 16 47 3 74 31 48 48
-24 15 -307 13 -313 -2z"/>
<path d="M3468 1879 c-16 -9 -18 -30 -18 -207 0 -213 2 -222 52 -222 32 0 37
12 40 110 3 60 5 65 26 68 24 4 72 -31 72 -52 0 -6 13 -36 28 -66 25 -50 31
-55 65 -58 52 -4 54 12 12 92 -19 37 -35 74 -35 83 0 8 16 33 35 56 27 32 35
49 35 81 0 45 -31 99 -68 115 -29 14 -221 14 -244 0z m192 -62 c28 -14 38 -54
21 -86 -15 -27 -118 -51 -132 -30 -10 16 -12 112 -2 122 11 12 87 7 113 -6z"/>
<path d="M3964 1873 c-3 -10 -12 -34 -20 -53 -7 -19 -16 -53 -20 -75 -4 -22
-13 -49 -20 -60 -8 -11 -14 -32 -14 -48 0 -15 -7 -41 -15 -57 -8 -16 -16 -51
-18 -77 -2 -43 0 -48 21 -51 28 -4 52 14 52 39 0 27 39 49 88 49 55 0 78 -12
87 -47 8 -33 21 -43 57 -43 41 0 40 10 -4 145 -5 17 -15 55 -22 85 -7 30 -18
65 -24 77 -7 12 -12 35 -12 51 0 16 -9 41 -21 56 -17 21 -29 26 -65 26 -34 0
-46 -4 -50 -17z m75 -137 c13 -21 21 -50 21 -80 0 -53 -13 -63 -57 -48 -21 7
-28 15 -26 33 3 41 27 129 34 129 4 0 17 -15 28 -34z"/>
<path d="M4630 1880 c-26 -17 2 -44 51 -50 l44 -5 6 -185 c3 -102 6 -186 7
-187 6 -8 60 -1 70 9 8 8 12 62 12 178 0 116 4 170 12 178 7 7 31 12 54 12 34
0 44 4 49 20 3 11 3 24 0 30 -8 13 -285 13 -305 0z"/>
<path d="M5436 1875 c-8 -21 -8 -388 0 -409 7 -19 55 -21 72 -4 7 7 12 39 12
73 0 71 15 98 50 93 20 -2 34 -21 69 -90 l44 -88 40 0 c37 0 39 2 33 25 -7 26
-21 60 -34 85 -39 69 -40 74 -5 106 46 42 48 153 4 198 -19 19 -34 21 -150 24
-112 3 -129 1 -135 -13z m219 -65 c9 -7 15 -28 15 -50 0 -36 -2 -39 -47 -54
-58 -20 -68 -20 -87 0 -19 19 -21 94 -3 113 15 16 99 10 122 -9z"/>
</g>
</svg>
